<svg id="visual" viewBox="0 0 2000 600" width="2000" height="600" xmlns="http://www.w3.org/2000/svg" xmlns:xlink="http://www.w3.org/1999/xlink" version="1.1"><path d="M0 258L33.3 262.8C66.7 267.7 133.3 277.3 200 302.3C266.7 327.3 333.3 367.7 400 366.5C466.7 365.3 533.3 322.7 600 301C666.7 279.3 733.3 278.7 800 271.8C866.7 265 933.3 252 1000 260.7C1066.7 269.3 1133.3 299.7 1200 330.3C1266.7 361 1333.3 392 1400 409C1466.7 426 1533.3 429 1600 429.7C1666.7 430.3 1733.3 428.7 1800 402C1866.7 375.3 1933.3 323.7 1966.7 297.8L2000 272L2000 601L1966.7 601C1933.3 601 1866.7 601 1800 601C1733.3 601 1666.7 601 1600 601C1533.3 601 1466.7 601 1400 601C1333.3 601 1266.7 601 1200 601C1133.3 601 1066.7 601 1000 601C933.3 601 866.7 601 800 601C733.3 601 666.7 601 600 601C533.3 601 466.7 601 400 601C333.3 601 266.7 601 200 601C133.3 601 66.7 601 33.3 601L0 601Z" fill="#f59e0b" stroke-linecap="round" stroke-linejoin="miter"></path></svg>